<svg width="116" height="31" viewBox="0 0 116 31" fill="none" xmlns="http://www.w3.org/2000/svg">
<g clip-path="url(#clip0_368_1388)">
<path d="M110.758 17.4163L109.381 24.4989C109.363 24.5953 109.275 24.663 109.176 24.6565L95.4623 23.6952C95.3538 23.6877 95.2814 23.5793 95.3158 23.4764L96.8447 18.8597C96.9022 18.6845 96.918 18.4981 96.8883 18.3164L95.004 6.54016C94.9706 6.33435 95.1265 6.14616 95.3352 6.13967L107.219 5.75495C107.317 5.75217 107.394 5.83838 107.38 5.9348L106.838 9.75701C106.828 9.83117 106.767 9.88772 106.693 9.89236L102.342 10.2057C102.286 10.2094 102.242 10.2567 102.243 10.3132L102.273 12.1154C102.273 12.171 102.319 12.2155 102.374 12.2155H104.97C105.056 12.2155 105.124 12.2897 105.117 12.3759L104.815 15.7383C104.81 15.7865 104.776 15.8264 104.729 15.8375L101.483 16.6023C101.438 16.6125 101.406 16.6533 101.407 16.6997L101.427 18.4879C101.427 18.5093 101.446 18.5259 101.468 18.5232L110.523 17.1725C110.664 17.1511 110.783 17.2763 110.756 17.4163H110.758Z" fill="black"/>
<path d="M93.7089 6.2421L94.9753 14.4196C94.9817 14.4632 94.9474 14.5012 94.9029 14.4984L89.2974 14.1656C89.2622 14.1637 89.2343 14.135 89.2325 14.0998L89.1527 12.1984C89.1508 12.1548 89.11 12.1242 89.0673 12.1344L85.5957 13.0049C85.5261 13.0225 85.476 13.0837 85.4732 13.156L85.2107 20.0375C85.2079 20.1135 85.2664 20.1775 85.3424 20.1803L88.8447 20.3304C88.9365 20.3341 89.0089 20.2535 88.995 20.1636L88.777 18.7081C88.7705 18.6664 88.8029 18.6293 88.8456 18.6293L95.274 18.6645C95.3992 18.6645 95.4874 18.7878 95.4475 18.9065L93.8916 23.5491C93.8657 23.627 93.7924 23.6789 93.7107 23.6771L81.8355 23.4666C81.7233 23.4648 81.6342 23.373 81.6351 23.2608L81.8021 9.26613C81.804 9.11966 81.9033 8.99265 82.0452 8.9565L93.4009 6.04001C93.5428 6.00385 93.6857 6.09748 93.7079 6.2421H93.7089Z" fill="black"/>
<path d="M80.2769 8.99256V23.2348C80.2769 23.3609 80.1721 23.461 80.0468 23.4563L76.2904 23.3145C76.1317 23.3089 75.9889 23.2162 75.9174 23.0744L71.3251 13.9133C71.3028 13.8698 71.2369 13.8874 71.2406 13.9365L71.4772 17.0328C71.4856 17.1441 71.3937 17.2377 71.2824 17.2322L66.9804 17.0004C66.8709 16.9948 66.7828 16.9077 66.7754 16.7974L66.2512 8.50678C66.2429 8.37885 66.3236 8.26112 66.446 8.22311L71.2861 6.70924C71.3928 6.67587 71.5078 6.72036 71.5644 6.81678L76.5149 15.2779C76.5335 15.3095 76.5826 15.2974 76.5836 15.2603L76.7348 7.40082C76.7376 7.2358 76.9138 7.13105 77.0604 7.20706L80.1777 8.82754C80.2389 8.85906 80.2769 8.9221 80.2769 8.9907V8.99256Z" fill="black"/>
<path d="M64.892 8.2735L65.3114 16.8301C65.3141 16.8895 65.2659 16.9377 65.2065 16.934L61.9789 16.7606C61.926 16.7578 61.8843 16.7133 61.8843 16.6605L61.9186 13.121C61.9186 13.0747 61.8815 13.0357 61.8342 13.0357H60.8109C60.7672 13.0357 60.732 13.0691 60.7292 13.1127L60.5344 16.5984C60.5316 16.6447 60.4917 16.6809 60.4453 16.679L58.369 16.5817C58.3198 16.5798 58.2827 16.5363 58.2883 16.4871L59.3042 7.8109C59.3135 7.73117 59.3849 7.6737 59.4647 7.68019L64.7603 8.13722C64.8326 8.14371 64.8883 8.20211 64.892 8.2735ZM62.0559 11.3133L62.093 9.80869C62.0949 9.7475 62.0438 9.69837 61.9835 9.70115L60.9899 9.74194C60.9259 9.74472 60.8749 9.79571 60.8721 9.85967L60.822 11.3392C60.8201 11.3847 60.8572 11.4227 60.9027 11.4227H61.9446C62.0049 11.4227 62.055 11.3745 62.0559 11.3142V11.3133Z" fill="black"/>
<path d="M71.3288 18.3338L55.4438 17.4226C55.3798 17.4189 55.3251 17.3762 55.3065 17.315L54.4669 14.6108C54.4419 14.5283 54.478 14.4402 54.5532 14.3995L57.2863 12.9301C57.3717 12.8837 57.4283 12.7975 57.4357 12.7002L57.7215 8.79268C57.7298 8.67402 57.6741 8.55999 57.5758 8.49324L54.1821 6.2229C54.1088 6.17377 54.0207 6.15245 53.9325 6.16265L47.8771 6.86071C47.8289 6.86628 47.7917 6.90707 47.7917 6.9562V8.80751C47.7917 8.86221 47.8363 8.90671 47.8919 8.90578L48.841 8.89373C48.8837 8.89373 48.919 8.92803 48.919 8.97067V23.6273C48.919 23.7571 49.0349 23.8563 49.1639 23.8359L51.3784 23.4845C51.4554 23.4725 51.512 23.4057 51.512 23.3278L51.4536 15.7437C51.4536 15.6741 51.4907 15.6102 51.551 15.5759L52.2848 15.1698C52.3832 15.1151 52.5066 15.1708 52.5307 15.2811L54.2832 23.275C54.3055 23.3742 54.3927 23.4465 54.4947 23.4474L71.7119 23.6801C71.7936 23.6811 71.8585 23.6115 71.8529 23.5299L71.4661 18.4664C71.4605 18.395 71.403 18.3376 71.3306 18.3338H71.3288ZM53.8871 12.4684L53.0094 11.7203C52.9602 11.6786 52.886 11.6841 52.8443 11.7333L52.0603 12.652C52.0297 12.6872 51.9768 12.6918 51.9406 12.6612L51.4684 12.2589C51.4332 12.2283 51.4285 12.1755 51.4591 12.1393L52.2431 11.2197C52.2848 11.1706 52.2793 11.0964 52.2301 11.0547L51.3608 10.314C51.2977 10.2602 51.2903 10.1656 51.3441 10.1035L51.6623 9.73085C51.7161 9.66781 51.8108 9.66039 51.8729 9.71416L52.7431 10.4549C52.7923 10.4966 52.8665 10.491 52.9083 10.4419L53.6598 9.56213C53.7089 9.50465 53.7943 9.49816 53.8518 9.5473L54.2461 9.88289C54.3036 9.93202 54.3101 10.0173 54.2609 10.0748L53.5095 10.9555C53.4677 11.0046 53.4733 11.0788 53.5225 11.1205L54.4001 11.8686C54.4586 11.9187 54.466 12.0058 54.4159 12.0642L54.0837 12.4536C54.0336 12.512 53.9464 12.5194 53.888 12.4693L53.8871 12.4684Z" fill="black"/>
<path d="M47.6776 12.1249L43.8432 12.631C43.8043 12.6366 43.7774 12.6737 43.7866 12.7126L43.9657 13.4904C43.974 13.5266 44.0093 13.5488 44.0455 13.5423L46.5634 13.0538C46.6627 13.0343 46.7517 13.1168 46.7406 13.2169L46.5671 14.7975C46.5569 14.8921 46.4882 14.969 46.3964 14.9922L44.6652 15.4196C44.6272 15.4289 44.6021 15.4669 44.6096 15.5058L44.7265 16.1612C44.7357 16.2113 44.7849 16.2428 44.8341 16.2307L47.608 15.5512C47.7008 15.529 47.7899 15.5985 47.7899 15.694V18.4492C47.7899 18.4974 47.7509 18.5372 47.7027 18.5372L42.2995 18.5966C42.2243 18.5966 42.1594 18.5456 42.1445 18.4723L40.418 10.3746C40.3911 10.2467 40.4857 10.1252 40.6165 10.1206L47.5709 9.87028C47.6915 9.86564 47.7917 9.96206 47.7917 10.0835V11.996C47.7917 12.0609 47.7435 12.1156 47.6795 12.1249H47.6776Z" fill="black"/>
<path d="M47.7908 19.8051V23.6533C47.7908 23.7228 47.7352 23.7794 47.6665 23.7812L32.2009 24.1465C32.0655 24.1492 31.9402 24.0742 31.8799 23.9536L28.8109 17.8073C28.7348 17.6544 28.7849 17.4689 28.9278 17.3762L35.4805 13.0794C35.5065 13.0627 35.5186 13.0321 35.5111 13.0015L35.1521 11.4672C35.1298 11.3718 35.0371 11.3106 34.9406 11.3263L26.7615 12.6826C26.6112 12.7076 26.4619 12.6316 26.3941 12.4944L24.0961 7.84898C24.0061 7.66635 24.1351 7.4522 24.3382 7.44664L38.0791 7.06748C38.2294 7.06377 38.3612 7.16667 38.3927 7.31315L39.8966 14.2354C39.9207 14.3476 39.8762 14.4625 39.7816 14.5284L33.8931 18.663C33.8226 18.713 33.8022 18.8085 33.8477 18.8827L34.3524 19.7105C34.3997 19.7875 34.4841 19.8348 34.575 19.8329L47.5886 19.6067C47.699 19.6049 47.7899 19.6939 47.7899 19.8042L47.7908 19.8051Z" fill="black"/>
<path d="M30.055 24.193L24.8003 24.1068C24.7066 24.1049 24.624 24.0456 24.5934 23.9575L22.1302 16.8851C22.1042 16.8118 22.0346 16.7618 21.9567 16.7618H20.1726C20.0706 16.7618 19.989 16.8461 19.9927 16.9481L20.2858 24.4822C20.2914 24.6148 20.1736 24.7186 20.0428 24.6973L17.1714 24.2301C17.1055 24.2189 17.0573 24.1633 17.0554 24.0975L16.6388 8.10407C16.6342 7.92793 16.7715 7.77961 16.9478 7.77126L22.0727 7.52096C22.2239 7.51354 22.3649 7.5979 22.4299 7.73418L30.2007 23.9649C30.2526 24.0725 30.1729 24.1967 30.0532 24.1948L30.055 24.193ZM21.3657 14.2402L20.2979 10.6785C20.284 10.6321 20.2413 10.6006 20.1931 10.6006H19.6587C19.603 10.6006 19.5585 10.6479 19.5622 10.7035L19.7793 14.3199C19.783 14.3755 19.8294 14.4191 19.886 14.4173L21.2674 14.3765C21.337 14.3746 21.3861 14.3069 21.3657 14.2402Z" fill="black"/>
<path d="M9.38383 24.3976V14.4049C9.38383 14.3373 9.2892 14.3234 9.26879 14.3873L8.21208 17.7497C8.18982 17.8202 8.12302 17.8665 8.04973 17.8638L6.84087 17.81C6.76758 17.8063 6.70542 17.7544 6.68965 17.683L5.91498 14.2511C5.90106 14.1899 5.812 14.1982 5.80921 14.2613L5.48636 24.2177C5.48172 24.3466 5.3843 24.4541 5.25535 24.469L0.266835 25.0493C0.118395 25.0669 -0.00963412 24.9445 0.000571126 24.7962L1.29757 5.68978C1.30777 5.53496 1.44693 5.42094 1.60094 5.43948L5.62088 5.93267C5.75262 5.94843 5.86302 6.03928 5.90384 6.16536L7.64245 11.4347C7.66007 11.4875 7.73429 11.4875 7.75192 11.4347L9.23168 6.88938C9.27158 6.76794 9.38476 6.68728 9.51279 6.68914L14.878 6.76979C15.0338 6.77257 15.16 6.89587 15.1646 7.05161L15.6944 24.0407C15.6981 24.164 15.6035 24.2669 15.481 24.2743L9.62226 24.6219C9.49331 24.6293 9.38476 24.5274 9.38476 24.3985L9.38383 24.3976Z" fill="black"/>
<path d="M114.507 23.5101V23.4415C114.611 23.4415 114.695 23.3571 114.695 23.2542V22.533C114.695 22.4291 114.61 22.3457 114.507 22.3457H113.619V24.1636H114.009V23.4424H114.149L114.387 24.1636H114.776L114.579 23.5629C114.569 23.5323 114.54 23.511 114.507 23.511V23.5101ZM114.32 22.9724C114.32 23.0243 114.278 23.066 114.226 23.066H114.009V22.7202H114.226C114.278 22.7202 114.32 22.7619 114.32 22.8139V22.9724Z" fill="black"/>
<path d="M115.464 21.9606C115.118 21.6148 114.658 21.4248 114.17 21.4248C113.681 21.4248 113.221 21.6148 112.875 21.9606C112.529 22.3064 112.339 22.7653 112.339 23.2539C112.339 23.7424 112.529 24.2013 112.875 24.5471C113.221 24.8929 113.681 25.0829 114.17 25.0829C114.658 25.0829 115.118 24.8929 115.464 24.5471C115.81 24.2013 116 23.7424 116 23.2539C116 22.7653 115.81 22.3064 115.464 21.9606ZM114.17 24.7529C113.342 24.7529 112.669 24.0808 112.669 23.2539C112.669 22.4269 113.342 21.7548 114.17 21.7548C114.997 21.7548 115.67 22.4269 115.67 23.2539C115.67 24.0808 114.997 24.7529 114.17 24.7529Z" fill="black"/>
</g>
<defs>
<clipPath id="clip0_368_1388">
<rect width="116" height="30.5202" fill="white"/>
</clipPath>
</defs>
</svg>
